Coordinates
version=1
nRows=38
nColumns=38
inDegrees=no

Units are S.I. units (second, meters, Newtons, ...)
If the header above contains a line with 'inDegrees', this indicates whether rotational values are in degrees (yes) or radians (no).

endheader
time	pelvis_tilt	pelvis_list	pelvis_rotation	pelvis_tx	pelvis_ty	pelvis_tz	hip_flexion_r	hip_adduction_r	hip_rotation_r	knee_angle_r	ankle_angle_r	subtalar_angle_r	mtp_angle_r	hip_flexion_l	hip_adduction_l	hip_rotation_l	knee_angle_l	ankle_angle_l	subtalar_angle_l	mtp_angle_l	lumbar_extension	lumbar_bending	lumbar_rotation	arm_flex_r	arm_add_r	arm_rot_r	elbow_flex_r	pro_sup_r	wrist_flex_r	wrist_dev_r	arm_flex_l	arm_add_l	arm_rot_l	elbow_flex_l	pro_sup_l	wrist_flex_l	wrist_dev_l
1.44	3.02885	1.31452	-1.40374	0.704466	0.815764	0.966335	-0.363175	0.0493721	-0.213555	0.267721	-0.185886	0	0	0.164263	-0.241705	-0.39284	1.04458	-0.273157	0	0	-0.317659	0.0598898	-0.0368296	0.151356	-0.333437	0.399292	0.824714	1.54328	0	0	-0.242413	-0.299993	0.242235	0.830101	1.5708	0	0
1.45	3.03654	1.31159	-1.40991	0.704162	0.824736	0.965438	-0.38027	0.0489474	-0.211923	0.262454	-0.182669	0	0	0.163416	-0.23452	-0.409505	0.984597	-0.281769	0	0	-0.322743	0.0585278	-0.0358968	0.158167	-0.334458	0.397817	0.833523	1.53852	0	0	-0.244248	-0.300032	0.239121	0.833381	1.5708	0	0
1.46	3.04196	1.31093	-1.41303	0.703689	0.833598	0.964237	-0.395019	0.0491697	-0.208591	0.256652	-0.178718	0	0	0.163964	-0.22471	-0.422772	0.921466	-0.28941	0	0	-0.325559	0.0577409	-0.0357194	0.164669	-0.335193	0.396018	0.841793	1.53351	0	0	-0.244965	-0.299526	0.236335	0.835032	1.5708	0	0
1.47	3.0453	1.31283	-1.41242	0.703031	0.842498	0.962739	-0.406886	0.0500868	-0.20684	0.251916	-0.173538	0	0	0.166242	-0.212197	-0.43014	0.855515	-0.295118	0	0	-0.325354	0.0575783	-0.0369825	0.17069	-0.335615	0.394224	0.848972	1.52942	0	0	-0.244789	-0.298539	0.233792	0.83513	1.5708	0	0
1.48	3.0461	1.31822	-1.40765	0.702227	0.851443	0.96089	-0.414367	0.0515479	-0.207356	0.249493	-0.16654	0	0	0.171323	-0.196932	-0.429246	0.786762	-0.297096	0	0	-0.321095	0.0578168	-0.0396158	0.175787	-0.334682	0.3909	0.854462	1.52514	0	0	-0.243696	-0.29726	0.231809	0.83305	1.5708	0	0
1.49	3.04313	1.32683	-1.398	0.70126	0.860349	0.958713	-0.417344	0.0535008	-0.20901	0.249288	-0.158552	0	0	0.178897	-0.179435	-0.418594	0.714734	-0.295522	0	0	-0.313318	0.0586472	-0.0429981	0.179924	-0.333018	0.386381	0.858777	1.52145	0	0	-0.241277	-0.29561	0.230917	0.828601	1.5708	0	0
1.5	3.03522	1.33928	-1.38228	0.700128	0.869204	0.956179	-0.415122	0.0557887	-0.21154	0.25121	-0.14929	0	0	0.189164	-0.159692	-0.395358	0.637861	-0.293182	0	0	-0.301188	0.0601109	-0.0471326	0.183387	-0.330919	0.38123	0.861388	1.52127	0	0	-0.237312	-0.293118	0.231018	0.821351	1.5708	0	0
1.51	3.02168	1.35434	-1.36039	0.69885	0.878028	0.953386	-0.408903	0.0583502	-0.214584	0.255162	-0.139913	0	0	0.199377	-0.138048	-0.358912	0.555038	-0.291651	0	0	-0.286162	0.0619924	-0.0515546	0.185621	-0.328157	0.374291	0.863092	1.52316	0	0	-0.232176	-0.290049	0.231957	0.812203	1.5708	0	0
1.52	3.00265	1.37096	-1.3327	0.697372	0.8869	0.950408	-0.399414	0.0605478	-0.219267	0.262379	-0.129427	0	0	0.207054	-0.115139	-0.31077	0.466618	-0.292049	0	0	-0.269006	0.0641401	-0.0558393	0.186072	-0.324688	0.364422	0.864239	1.52676	0	0	-0.22585	-0.286565	0.234582	0.801214	1.5708	0	0
1.53	2.97891	1.38493	-1.3014	0.695786	0.896009	0.947478	-0.39173	0.0624514	-0.225155	0.271556	-0.119928	0	0	0.211731	-0.0978018	-0.271406	0.389074	-0.292475	0	0	-0.254107	0.0669807	-0.0594779	0.185423	-0.322134	0.355018	0.866864	1.53129	0	0	-0.220286	-0.282899	0.23714	0.791453	1.5708	0	0
1.54	2.95567	1.39533	-1.27234	0.694287	0.905326	0.944789	-0.386847	0.0635919	-0.231109	0.282717	-0.111992	0	0	0.215059	-0.0862696	-0.247403	0.329701	-0.289771	0	0	-0.242944	0.0695746	-0.0620453	0.184547	-0.319909	0.346793	0.870188	1.53361	0	0	-0.215373	-0.279249	0.238947	0.783031	1.5708	0	0
1.55	2.93738	1.40364	-1.24945	0.692802	0.914761	0.942393	-0.38384	0.0635742	-0.235523	0.294416	-0.104966	0	0	0.216	-0.0760427	-0.228877	0.280133	-0.286078	0	0	-0.234161	0.0711334	-0.0634066	0.183097	-0.317459	0.338351	0.873053	1.53451	0	0	-0.209517	-0.275618	0.241774	0.773961	1.5708	0	0
1.56	2.9263	1.40953	-1.23504	0.691397	0.924333	0.940393	-0.382808	0.0621927	-0.239472	0.307844	-0.0992766	0	0	0.213365	-0.0666075	-0.212746	0.238286	-0.283743	0	0	-0.228215	0.0716149	-0.0634268	0.181521	-0.315213	0.330928	0.874824	1.53706	0	0	-0.202775	-0.272355	0.245921	0.764238	1.5708	0	0
1.57	2.92169	1.41283	-1.22865	0.690244	0.934066	0.938808	-0.384964	0.0605925	-0.240711	0.319871	-0.0962126	0	0	0.20834	-0.0593233	-0.200391	0.208331	-0.282836	0	0	-0.22533	0.0711523	-0.0621857	0.179877	-0.312285	0.324078	0.87542	1.53905	0	0	-0.195817	-0.269739	0.250433	0.754748	1.5708	0	0
1.58	2.92304	1.41379	-1.22968	0.689303	0.943944	0.937606	-0.389431	0.0586191	-0.240638	0.33179	-0.0953896	0	0	0.202791	-0.0546225	-0.19373	0.195119	-0.283021	0	0	-0.225211	0.0699524	-0.0597712	0.177944	-0.309	0.318059	0.875211	1.54066	0	0	-0.188826	-0.267376	0.254514	0.745721	1.5708	0	0
1.59	2.92938	1.41312	-1.23682	0.68843	0.954037	0.936707	-0.395583	0.0558441	-0.240017	0.343598	-0.0965767	0	0	0.19804	-0.0519691	-0.19319	0.200208	-0.28415	0	0	-0.226749	0.0681945	-0.0564599	0.174958	-0.305261	0.311411	0.874698	1.54212	0	0	-0.181824	-0.265223	0.258883	0.73684	1.5708	0	0
1.6	2.93903	1.41155	-1.24796	0.687539	0.964387	0.936009	-0.402284	0.0520125	-0.239692	0.356602	-0.0998577	0	0	0.194459	-0.050729	-0.197211	0.221669	-0.284947	0	0	-0.229094	0.0659694	-0.0526831	0.170509	-0.30122	0.304099	0.874345	1.54246	0	0	-0.175151	-0.263418	0.263848	0.728302	1.5708	0	0
1.61	2.95021	1.40976	-1.26107	0.686528	0.975022	0.93545	-0.409049	0.0472935	-0.238879	0.370033	-0.105021	0	0	0.191015	-0.0497607	-0.202987	0.252169	-0.283801	0	0	-0.231243	0.0634712	-0.048574	0.164384	-0.297654	0.297219	0.874263	1.54213	0	0	-0.168896	-0.261682	0.269622	0.719802	1.5708	0	0
1.62	2.96337	1.40823	-1.27656	0.685441	0.985934	0.935042	-0.4153	0.0420544	-0.237146	0.383752	-0.112044	0	0	0.186911	-0.0481601	-0.210012	0.282713	-0.280255	0	0	-0.232492	0.0604649	-0.0442613	0.156879	-0.294494	0.291266	0.873703	1.54161	0	0	-0.163023	-0.259826	0.275863	0.711276	1.5708	0	0
1.63	2.97824	1.40738	-1.29392	0.684279	0.997091	0.93484	-0.420318	0.0362296	-0.234489	0.398349	-0.121164	0	0	0.181672	-0.0448154	-0.21529	0.303459	-0.280659	0	0	-0.232599	0.056708	-0.0399638	0.14826	-0.29139	0.286047	0.872014	1.54149	0	0	-0.157111	-0.257609	0.281362	0.702315	1.5708	0	0
1.64	2.99392	1.40772	-1.3118	0.683038	1.00841	0.934869	-0.42314	0.0299687	-0.230621	0.414325	-0.132458	0	0	0.175701	-0.0395096	-0.216074	0.31112	-0.291859	0	0	-0.231249	0.0521916	-0.0358861	0.138701	-0.287993	0.280943	0.868681	1.54173	0	0	-0.150902	-0.255072	0.286539	0.692255	1.5708	0	0
1.65	3.00954	1.40971	-1.32929	0.681724	1.01983	0.935106	-0.422717	0.023199	-0.225876	0.43263	-0.146794	0	0	0.170004	-0.0337092	-0.214405	0.311183	-0.313238	0	0	-0.227822	0.0471375	-0.0315405	0.127785	-0.283962	0.274742	0.863622	1.54259	0	0	-0.143587	-0.252371	0.293204	0.680078	1.5708	0	0
1.66	3.02497	1.41256	-1.34645	0.68035	1.03142	0.935499	-0.41987	0.0158107	-0.221039	0.453632	-0.162805	0	0	0.164676	-0.0290053	-0.214028	0.311351	-0.334771	0	0	-0.223035	0.0419157	-0.027789	0.116196	-0.27925	0.268798	0.856952	1.54294	0	0	-0.136845	-0.249409	0.298955	0.667774	1.5708	0	0
1.67	3.03631	1.41541	-1.35926	0.67886	1.04319	0.935979	-0.415273	0.00828476	-0.216921	0.477388	-0.18137	0	0	0.159997	-0.0262331	-0.216151	0.31565	-0.351242	0	0	-0.217575	0.0376971	-0.0248444	0.103948	-0.274725	0.263567	0.849994	1.54218	0	0	-0.131355	-0.245914	0.30268	0.656683	1.5708	0	0
1.68	3.04014	1.41816	-1.36446	0.677217	1.05513	0.93651	-0.409196	0.00160346	-0.21134	0.50273	-0.202593	0	0	0.156319	-0.0256825	-0.219339	0.32458	-0.362508	0	0	-0.211439	0.0350265	-0.0226318	0.0915846	-0.271829	0.261376	0.843011	1.54302	0	0	-0.127362	-0.241748	0.30405	0.647192	1.5708	0	0
1.69	3.03982	1.41999	-1.36502	0.675457	1.06717	0.937129	-0.401555	-0.005042	-0.206674	0.532222	-0.226893	0	0	0.152601	-0.0266704	-0.222142	0.337996	-0.36932	0	0	-0.20568	0.0334672	-0.0218758	0.079425	-0.269859	0.261861	0.836017	1.54426	0	0	-0.124994	-0.23787	0.304192	0.640485	1.5708	0	0
1.7	3.04002	1.42021	-1.36578	0.673618	1.07917	0.938034	-0.392511	-0.0125005	-0.202558	0.566347	-0.255397	0	0	0.146465	-0.0274943	-0.222568	0.351435	-0.370668	0	0	-0.201557	0.0324213	-0.0223613	0.0683373	-0.268424	0.264905	0.828152	1.54549	0	0	-0.123002	-0.234265	0.303827	0.635349	1.5708	0	0
1.71	3.04658	1.41946	-1.37197	0.671629	1.09105	0.939233	-0.381727	-0.0215309	-0.199591	0.604003	-0.288631	0	0	0.137669	-0.0265037	-0.22125	0.362264	-0.364557	0	0	-0.19871	0.0308836	-0.0245612	0.0585197	-0.267424	0.270515	0.819006	1.54715	0	0	-0.120708	-0.231019	0.303927	0.630909	1.5708	0	0
1.72	3.05917	1.41915	-1.38318	0.669554	1.10269	0.940602	-0.36707	-0.0318573	-0.197886	0.645333	-0.326217	0	0	0.128511	-0.0240883	-0.2214	0.371528	-0.355869	0	0	-0.196012	0.0283965	-0.0284356	0.0502774	-0.266328	0.278082	0.808048	1.54953	0	0	-0.117976	-0.22839	0.304749	0.627406	1.5708	0	0
1.73	3.07894	1.41976	-1.4014	0.667605	1.1139	0.942034	-0.346979	-0.0436409	-0.196225	0.691535	-0.370322	0	0	0.120109	-0.0205863	-0.224438	0.380465	-0.348491	0	0	-0.193238	0.0244793	-0.0333485	0.0443531	-0.264928	0.288128	0.79506	1.55303	0	0	-0.114602	-0.227129	0.307174	0.625478	1.5708	0	0
1.74	3.10563	1.41925	-1.42697	0.665838	1.12485	0.943574	-0.324732	-0.0565951	-0.194291	0.740339	-0.417913	0	0	0.108794	-0.0157854	-0.22657	0.386666	-0.341649	0	0	-0.192217	0.0196242	-0.0385451	0.0396297	-0.263454	0.299012	0.782096	1.55784	0	0	-0.111016	-0.227319	0.310919	0.626368	1.5708	0	0
1.75	3.1326	1.4183	-1.45357	0.664176	1.13562	0.945063	-0.300549	-0.0694817	-0.190458	0.789906	-0.46736	0	0	0.0951056	-0.0105536	-0.227961	0.38981	-0.333955	0	0	-0.191702	0.0147453	-0.0436828	0.0354139	-0.262437	0.31047	0.770029	1.56287	0	0	-0.107763	-0.228783	0.316132	0.630048	1.5708	0	0
1.76	-3.128	1.41806	-1.47687	0.662733	1.14612	0.946359	-0.272967	-0.081457	-0.183847	0.841672	-0.508058	0	0	0.0806868	-0.00626279	-0.231721	0.389952	-0.326478	0	0	-0.19074	0.0102883	-0.0480166	0.0312007	-0.261971	0.321662	0.759706	1.56805	0	0	-0.104485	-0.231647	0.322733	0.636303	1.5708	0	0
1.77	-3.1079	1.42029	-1.49738	0.661261	1.15623	0.947317	-0.240434	-0.0931659	-0.17696	0.896139	-0.54262	0	0	0.0690104	-0.00258047	-0.236712	0.389779	-0.318809	0	0	-0.187558	0.0062987	-0.0530277	0.0274723	-0.262583	0.333918	0.750797	1.5708	0	0	-0.100945	-0.23557	0.330571	0.644402	1.5708	0	0
1.78	-3.09343	1.42124	-1.5115	0.659842	1.16601	0.948321	-0.208539	-0.103335	-0.171457	0.949781	-0.571346	0	0	0.0553528	0.000600185	-0.235733	0.386909	-0.310968	0	0	-0.186004	0.00378418	-0.0589839	0.0246057	-0.264167	0.347143	0.743561	1.5708	0	0	-0.0964444	-0.240225	0.339395	0.654087	1.5708	0	0
1.79	-3.08354	1.42205	-1.52159	0.658527	1.17562	0.949412	-0.176386	-0.112187	-0.16539	1.00118	-0.595571	0	0	0.0407362	0.00308457	-0.232835	0.380636	-0.30535	0	0	-0.184838	0.00218435	-0.0643831	0.021742	-0.265928	0.358456	0.737419	1.5708	0	0	-0.0906552	-0.244569	0.347981	0.663341	1.5708	0	0
1.8	-3.07885	1.42563	-1.5267	0.657318	1.18503	0.950429	-0.140209	-0.119625	-0.158987	1.05144	-0.618435	0	0	0.0291181	0.00469396	-0.228461	0.372064	-0.301736	0	0	-0.180681	0.00125743	-0.0695828	0.0201132	-0.268468	0.371963	0.730159	1.5708	0	0	-0.0833071	-0.248751	0.357923	0.670461	1.5708	0	0
1.81	-3.08198	1.42868	-1.52366	0.656158	1.1941	0.951583	-0.104149	-0.1254	-0.154086	1.09972	-0.62462	0	0	0.0171593	0.00485748	-0.223447	0.362032	-0.300545	0	0	-0.17784	0.00183578	-0.0748982	0.0185672	-0.270167	0.380988	0.723818	1.5708	0	0	-0.0744565	-0.252293	0.366431	0.67651	1.5708	0	0
